RobotoFlexCondensed-Bold.ufo
<glyph name="period" format="2">
  <advance width="643"/>
  <unicode hex="002E"/>
  <outline>
    <contour>
      <point x="133.8769230769" y="152.51282051281666" type="curve" smooth="yes"/>
      <point x="134" y="249"/>
      <point x="199" y="327"/>
      <point x="317.28036351833333" y="326.77948717948334" type="curve" smooth="yes"/>
      <point x="435" y="327"/>
      <point x="499" y="250"/>
      <point x="498.9889321648833" y="151.44615384615" type="curve" smooth="yes"/>
      <point x="499" y="56"/>
      <point x="436" y="-22"/>
      <point x="316.21369685166667" y="-21.8153846154" type="curve" smooth="yes"/>
      <point x="199" y="-22"/>
      <point x="134" y="56"/>
    </contour>
  </outline>
</glyph>
<glyph name="Q" format="2">
  <advance width="1308"/>
  <unicode hex="0051"/>
  <outline>
    <contour>
      <point x="99.4" y="682.43076923075" type="curve" smooth="yes"/>
      <point x="99.4" y="773.56923076925" type="line" smooth="yes"/>
      <point x="100" y="1268"/>
      <point x="321" y="1485"/>
      <point x="652.7611996105" y="1485.3846153846" type="curve" smooth="yes"/>
      <point x="985" y="1485"/>
      <point x="1206" y="1268"/>
      <point x="1206.0557325543834" y="773.56923076925" type="curve" smooth="yes"/>
      <point x="1206.0557325543834" y="682.43076923075" type="line" smooth="yes"/>
      <point x="1206" y="188"/>
      <point x="985" y="-29"/>
      <point x="652.7611996105" y="-29.3846153846" type="curve" smooth="yes"/>
      <point x="321" y="-29"/>
      <point x="100" y="188"/>
    </contour>
    <contour>
      <point x="404.4" y="616.8333333333334" type="line" smooth="yes"/>
      <point x="404" y="309"/>
      <point x="493" y="201"/>
      <point x="652.7611996105" y="200.6897435897667" type="curve" smooth="yes"/>
      <point x="813" y="201"/>
      <point x="901" y="309"/>
      <point x="900.5666666666666" y="616.8333333333334" type="curve" smooth="yes"/>
      <point x="900.5666666666666" y="838.6666666666666" type="line" smooth="yes"/>
      <point x="901" y="1146"/>
      <point x="813" y="1255"/>
      <point x="652.7611996105" y="1254.6948717948833" type="curve" smooth="yes"/>
      <point x="493" y="1255"/>
      <point x="404" y="1146"/>
      <point x="404.4" y="838.6666666666666" type="curve" smooth="yes"/>
    </contour>
    <contour>
      <point x="988.78383641675" y="-279.62051282051664" type="line"/>
      <point x="611.8963946770333" y="23.46923076925" type="line"/>
      <point x="805.9417020448" y="212.73333333333332" type="line"/>
      <point x="1186.63940019475" y="-85.60256410258333" type="line"/>
    </contour>
  </outline>
</glyph>
<glyph name="U" format="2">
  <advance width="1261"/>
  <unicode hex="0055"/>
  <outline>
    <contour>
      <point x="137.5" y="534.0" type="curve" smooth="yes"/>
      <point x="137.5" y="1456.0" type="line"/>
      <point x="433.9" y="1456.0" type="line"/>
      <point x="433.9" y="474.8333333333333" type="line" smooth="yes"/>
      <point x="434" y="267"/>
      <point x="506" y="201"/>
      <point x="633.6333333333333" y="200.66666666666669" type="curve" smooth="yes"/>
      <point x="759" y="201"/>
      <point x="831" y="269"/>
      <point x="831.2333333333333" y="474.8333333333333" type="curve" smooth="yes"/>
      <point x="831.2333333333333" y="1456.0" type="line"/>
      <point x="1121.7" y="1456.0" type="line"/>
      <point x="1121.7" y="534.0" type="line" smooth="yes"/>
      <point x="1122" y="114"/>
      <point x="918" y="-30"/>
      <point x="631.1333333333333" y="-29.5" type="curve" smooth="yes"/>
      <point x="343" y="-30"/>
      <point x="138" y="114"/>
    </contour>
  </outline>
</glyph>
<glyph name="Z" format="2">
  <advance width="962"/>
  <unicode hex="005A"/>
  <outline>
    <contour>
      <point x="11.875457875480954" y="0.0" type="line"/>
      <point x="11.875457875480954" y="191.54358974356666" type="line"/>
      <point x="551.8642147725643" y="1228.3256410256333" type="line"/>
      <point x="24.55238095238095" y="1228.3256410256333" type="line"/>
      <point x="24.55238095238095" y="1456.0" type="line"/>
      <point x="921.5871566745476" y="1456.0" type="line"/>
      <point x="921.5871566745476" y="1263.2256410256334" type="line"/>
      <point x="381.9036578105643" y="226.4435897435667" type="line"/>
      <point x="954.3256182129976" y="226.4435897435667" type="line"/>
      <point x="954.3256182129976" y="0.0" type="line"/>
    </contour>
  </outline>
</glyph>
<glyph name="m" format="2">
  <advance width="1585"/>
  <unicode hex="006D"/>
  <outline>
    <contour>
      <point x="130.0" y="0.0" type="line"/>
      <point x="130.0" y="1079.857142857143" type="line"/>
      <point x="406.1666666666667" y="1079.857142857143" type="line"/>
      <point x="411.6" y="975.3571428571429" type="line"/>
      <point x="415.4666666666667" y="975.3571428571429" type="line"/>
      <point x="463" y="1059"/>
      <point x="553" y="1100"/>
      <point x="646.6" y="1100.357142857143" type="curve" smooth="yes"/>
      <point x="770" y="1100"/>
      <point x="861" y="1036"/>
      <point x="899.5" y="924.7571428571429" type="curve"/>
      <point x="901.3666666666667" y="924.7571428571429" type="line"/>
      <point x="944" y="1028"/>
      <point x="1064" y="1100"/>
      <point x="1181.0" y="1100.357142857143" type="curve" smooth="yes"/>
      <point x="1348" y="1100"/>
      <point x="1465" y="959"/>
      <point x="1464.6" y="768.6238095238095" type="curve" smooth="yes"/>
      <point x="1464.6" y="0.0" type="line"/>
      <point x="1174.5666666666666" y="0.0" type="line"/>
      <point x="1174.5666666666666" y="753.5571428571428" type="line" smooth="yes"/>
      <point x="1175" y="833"/>
      <point x="1139" y="877"/>
      <point x="1077.7333333333333" y="877.6904761904761" type="curve" smooth="yes"/>
      <point x="1003" y="878"/>
      <point x="953" y="829"/>
      <point x="941.5333333333333" y="774.5238095238095" type="curve"/>
      <point x="941.5333333333333" y="0.0" type="line"/>
      <point x="651.5" y="0.0" type="line"/>
      <point x="651.5" y="752.6904761904761" type="line" smooth="yes"/>
      <point x="652" y="833"/>
      <point x="606" y="878"/>
      <point x="555.9333333333334" y="877.6904761904761" type="curve" smooth="yes"/>
      <point x="496" y="878"/>
      <point x="435" y="832"/>
      <point x="418.4666666666667" y="774.5238095238095" type="curve"/>
      <point x="418.4666666666667" y="0.0" type="line"/>
    </contour>
  </outline>
</glyph>
<glyph name="threesuperior" format="2">
  <advance width="658"/>
  <unicode hex="00B3"/>
  <outline>
    <contour>
      <point x="45.8" y="921.6666666666666" type="curve"/>
      <point x="252.8" y="921.6666666666666" type="line"/>
      <point x="253" y="860"/>
      <point x="271" y="829"/>
      <point x="329.8" y="829.1666666666666" type="curve" smooth="yes"/>
      <point x="381" y="829"/>
      <point x="407" y="864"/>
      <point x="407.1333333333333" y="932.0" type="curve" smooth="yes"/>
      <point x="407" y="996"/>
      <point x="398" y="1034"/>
      <point x="312.8" y="1031.3333333333333" type="curve" smooth="yes"/>
      <point x="258.8" y="1031.3333333333333" type="line"/>
      <point x="258.8" y="1157.6666666666667" type="line"/>
      <point x="310.3" y="1157.6666666666667" type="line" smooth="yes"/>
      <point x="385" y="1158"/>
      <point x="390" y="1197"/>
      <point x="389.6333333333333" y="1255.0" type="curve" smooth="yes"/>
      <point x="390" y="1313"/>
      <point x="363" y="1343"/>
      <point x="324.3" y="1342.8333333333333" type="curve" smooth="yes"/>
      <point x="275" y="1343"/>
      <point x="262" y="1317"/>
      <point x="261.8" y="1254.3333333333333" type="curve"/>
      <point x="55.3" y="1254.3333333333333" type="line"/>
      <point x="55" y="1406"/>
      <point x="134" y="1486"/>
      <point x="327.3" y="1486.5" type="curve" smooth="yes"/>
      <point x="527" y="1486"/>
      <point x="600" y="1403"/>
      <point x="599.8" y="1262.5" type="curve" smooth="yes"/>
      <point x="600" y="1196"/>
      <point x="557" y="1130"/>
      <point x="468.8" y="1102.0" type="curve"/>
      <point x="567" y="1077"/>
      <point x="618" y="1013"/>
      <point x="617.8" y="921.0" type="curve" smooth="yes"/>
      <point x="618" y="772"/>
      <point x="534" y="686"/>
      <point x="324.8" y="686.0" type="curve" smooth="yes"/>
      <point x="128" y="686"/>
      <point x="46" y="776"/>
    </contour>
  </outline>
</glyph>
<glyph name="ae" format="2">
  <advance width="1553"/>
  <unicode hex="00E6"/>
  <outline>
    <contour>
      <point x="366.4666666666667" y="324.2" type="curve" smooth="yes"/>
      <point x="366" y="222"/>
      <point x="404" y="178"/>
      <point x="477.43333333333334" y="177.73333333333335" type="curve" smooth="yes"/>
      <point x="566" y="178"/>
      <point x="630" y="228"/>
      <point x="629.8666666666667" y="361.6" type="curve" smooth="yes"/>
      <point x="629.8666666666667" y="481.6333333333333" type="line"/>
      <point x="523.4" y="481.6333333333333" type="line" smooth="yes"/>
      <point x="418" y="482"/>
      <point x="366" y="448"/>
    </contour>
    <contour>
      <point x="77.0" y="314.03333333333336" type="curve" smooth="yes"/>
      <point x="77" y="551"/>
      <point x="235" y="657"/>
      <point x="485.6" y="657.3666666666667" type="curve" smooth="yes"/>
      <point x="629.8666666666667" y="657.3666666666667" type="line"/>
      <point x="629.8666666666667" y="724.0" type="line" smooth="yes"/>
      <point x="630" y="821"/>
      <point x="603" y="887"/>
      <point x="520.9" y="886.7666666666667" type="curve" smooth="yes"/>
      <point x="438" y="887"/>
      <point x="408" y="831"/>
      <point x="407.93333333333334" y="757.5" type="curve" smooth="yes"/>
      <point x="407.93333333333334" y="742.0" type="line"/>
      <point x="123.46666666666667" y="742.0" type="line"/>
      <point x="123.46666666666667" y="757.5" type="line" smooth="yes"/>
      <point x="123" y="962"/>
      <point x="292" y="1085"/>
      <point x="531.8333333333334" y="1085.0" type="curve" smooth="yes"/>
      <point x="622" y="1085"/>
      <point x="719" y="1095"/>
      <point x="810.6333333333333" y="1020.6" type="curve"/>
      <point x="916" y="1087"/>
      <point x="1010" y="1086"/>
      <point x="1082.8" y="1085.5" type="curve" smooth="yes"/>
      <point x="1346" y="1086"/>
      <point x="1506" y="919"/>
      <point x="1505.9" y="561.5" type="curve" smooth="yes"/>
      <point x="1505.9" y="457.1333333333333" type="line"/>
      <point x="820.4666666666667" y="457.1333333333333" type="line"/>
      <point x="820.4666666666667" y="642.8666666666667" type="line"/>
      <point x="1219.9333333333334" y="642.8666666666667" type="line"/>
      <point x="1219.3666666666668" y="659.1666666666666" type="line" smooth="yes"/>
      <point x="1220" y="786"/>
      <point x="1182" y="875"/>
      <point x="1080.0" y="875.2666666666667" type="curve" smooth="yes"/>
      <point x="975" y="875"/>
      <point x="918" y="817"/>
      <point x="917.7333333333333" y="592.0" type="curve" smooth="yes"/>
      <point x="917.7333333333333" y="464.5" type="line" smooth="yes"/>
      <point x="918" y="256"/>
      <point x="972" y="185"/>
      <point x="1086.8666666666668" y="185.23333333333335" type="curve" smooth="yes"/>
      <point x="1184" y="185"/>
      <point x="1239" y="251"/>
      <point x="1280.5333333333333" y="322.6666666666667" type="curve"/>
      <point x="1500.7666666666667" y="202.23333333333335" type="line"/>
      <point x="1437" y="47"/>
      <point x="1287" y="-30"/>
      <point x="1103.0333333333333" y="-30.5" type="curve" smooth="yes"/>
      <point x="950" y="-30"/>
      <point x="840" y="22"/>
      <point x="753.6666666666666" y="109.53333333333333" type="curve"/>
      <point x="668" y="27"/>
      <point x="551" y="-20"/>
      <point x="413.4666666666667" y="-19.5" type="curve" smooth="yes"/>
      <point x="198" y="-20"/>
      <point x="77" y="72"/>
    </contour>
  </outline>
</glyph>
<glyph name="divide" format="2">
  <advance width="917"/>
  <unicode hex="00F7"/>
  <outline>
    <contour>
      <point x="332.6666666666667" y="1065.0" type="curve" smooth="yes"/>
      <point x="332.6666666666667" y="1136.02"/>
      <point x="374.5866666666667" y="1188.0"/>
      <point x="457.6666666666667" y="1188.0" type="curve" smooth="yes"/>
      <point x="539.4066666666666" y="1188.0"/>
      <point x="583.6666666666666" y="1136.02"/>
      <point x="583.6666666666666" y="1065.0" type="curve" smooth="yes"/>
      <point x="583.6666666666666" y="996.66"/>
      <point x="539.4066666666666" y="945.0"/>
      <point x="457.6666666666667" y="945.0" type="curve" smooth="yes"/>
      <point x="374.5866666666667" y="945.0"/>
      <point x="332.6666666666667" y="996.66"/>
    </contour>
    <contour>
      <point x="332.6666666666667" y="288.0" type="curve" smooth="yes"/>
      <point x="332.6666666666667" y="357.68"/>
      <point x="374.5866666666667" y="411.0"/>
      <point x="457.6666666666667" y="411.0" type="curve" smooth="yes"/>
      <point x="539.4066666666666" y="411.0"/>
      <point x="583.6666666666666" y="357.68"/>
      <point x="583.6666666666666" y="288.0" type="curve" smooth="yes"/>
      <point x="583.6666666666666" y="219.66"/>
      <point x="539.4066666666666" y="167.0"/>
      <point x="457.6666666666667" y="167.0" type="curve" smooth="yes"/>
      <point x="374.5866666666667" y="167.0"/>
      <point x="332.6666666666667" y="219.66"/>
    </contour>
    <contour>
      <point x="57.0" y="588.0" type="line"/>
      <point x="57.0" y="768.0" type="line"/>
      <point x="860.3333333333334" y="768.0" type="line"/>
      <point x="860.3333333333334" y="588.0" type="line"/>
    </contour>
  </outline>
</glyph>
<glyph name="oe" format="2">
  <advance width="1632"/>
  <unicode hex="0153"/>
  <outline>
    <contour>
      <point x="368.4666666666667" y="592.5" type="curve" smooth="yes"/>
      <point x="368.4666666666667" y="463.5" type="line" smooth="yes"/>
      <point x="368.4666666666667" y="262.99133333333333"/>
      <point x="430.442" y="191.23333333333335"/>
      <point x="538.1333333333333" y="191.23333333333335" type="curve" smooth="yes"/>
      <point x="645.8246666666666" y="191.23333333333335"/>
      <point x="708.3666666666667" y="263.7506666666667"/>
      <point x="708.3666666666667" y="463.5" type="curve" smooth="yes"/>
      <point x="708.3666666666667" y="592.5" type="line" smooth="yes"/>
      <point x="708.3666666666667" y="798.726"/>
      <point x="651.0506666666666" y="864.2666666666667"/>
      <point x="538.1333333333333" y="864.2666666666667" type="curve" smooth="yes"/>
      <point x="424.546" y="864.2666666666667"/>
      <point x="368.4666666666667" y="792.3386666666667"/>
    </contour>
    <contour>
      <point x="857.8" y="959.3666666666667" type="curve"/>
      <point x="966.6080000000001" y="1082.1106666666667"/>
      <point x="1063.156" y="1085.5"/>
      <point x="1143.4666666666667" y="1085.5" type="curve" smooth="yes"/>
      <point x="1427.8593333333333" y="1085.5"/>
      <point x="1582.4333333333334" y="919.0566666666667"/>
      <point x="1582.4333333333334" y="561.5" type="curve" smooth="yes"/>
      <point x="1582.4333333333334" y="457.1333333333333" type="line"/>
      <point x="897.0" y="457.1333333333333" type="line"/>
      <point x="897.0" y="642.8666666666667" type="line"/>
      <point x="1296.4666666666667" y="642.8666666666667" type="line"/>
      <point x="1295.9" y="657.6666666666666" type="line" smooth="yes"/>
      <point x="1297.3293333333334" y="784.922"/>
      <point x="1261.788" y="875.2666666666667"/>
      <point x="1150.3" y="875.2666666666667" type="curve" smooth="yes"/>
      <point x="1053.7753333333333" y="875.2666666666667"/>
      <point x="994.2666666666667" y="816.316"/>
      <point x="994.2666666666667" y="592.0" type="curve" smooth="yes"/>
      <point x="994.2666666666667" y="464.5" type="line" smooth="yes"/>
      <point x="994.2666666666667" y="256.3086666666667"/>
      <point x="1054.184" y="185.23333333333335"/>
      <point x="1169.0666666666666" y="185.23333333333335" type="curve" smooth="yes"/>
      <point x="1266.5739999999998" y="185.23333333333335"/>
      <point x="1315.482" y="251.066"/>
      <point x="1357.0666666666666" y="322.6666666666667" type="curve"/>
      <point x="1577.3" y="202.23333333333335" type="line"/>
      <point x="1513.1586666666667" y="47.105999999999995"/>
      <point x="1367.148" y="-30.5"/>
      <point x="1167.6666666666667" y="-30.5" type="curve" smooth="yes"/>
      <point x="1075.0726666666665" y="-30.5"/>
      <point x="959.6506666666667" y="-16.220666666666673"/>
      <point x="855.6666666666666" y="95.13333333333333" type="curve"/>
      <point x="749.5833333333334" y="-16.980000000000004"/>
      <point x="634.372" y="-30.0"/>
      <point x="555.1333333333333" y="-30.0" type="curve" smooth="yes"/>
      <point x="255.9113333333333" y="-30.0"/>
      <point x="73.0" y="149.75333333333327"/>
      <point x="73.0" y="512.0" type="curve" smooth="yes"/>
      <point x="73.0" y="544.0" type="line" smooth="yes"/>
      <point x="73.0" y="906.2466666666667"/>
      <point x="260.1386666666666" y="1086.0666666666666"/>
      <point x="544.9333333333334" y="1086.0666666666666" type="curve" smooth="yes"/>
      <point x="631.6759999999999" y="1086.0666666666666"/>
      <point x="745.5526666666666" y="1086.5773333333332"/>
    </contour>
  </outline>
</glyph>
<glyph name="florin" format="2">
  <advance width="1018"/>
  <unicode hex="0192"/>
  <outline>
    <contour>
      <point x="820.6666666666666" y="895.7333333333333" type="line"/>
      <point x="820.6666666666666" y="687.7666666666667" type="line"/>
      <point x="581.8333333333334" y="687.7666666666667" type="line"/>
      <point x="581.8333333333334" y="59.5" type="line" smooth="yes"/>
      <point x="581.8333333333334" y="-275.2766666666667"/>
      <point x="456.7393333333333" y="-436.5"/>
      <point x="158.5" y="-436.5" type="curve" smooth="yes"/>
      <point x="108.91999999999999" y="-436.5"/>
      <point x="24.510000000000005" y="-428.9"/>
      <point x="-11.0" y="-415.5" type="curve"/>
      <point x="19.5" y="-203.0" type="line"/>
      <point x="39.6" y="-209.7"/>
      <point x="81.32" y="-214.5"/>
      <point x="117.5" y="-214.5" type="curve" smooth="yes"/>
      <point x="254.40333333333334" y="-214.5"/>
      <point x="280.616" y="-111.75666666666666"/>
      <point x="286.33333333333337" y="85.0" type="curve" smooth="yes"/>
      <point x="286.33333333333337" y="687.7666666666667" type="line"/>
      <point x="154.0" y="687.7666666666667" type="line"/>
      <point x="154.0" y="895.7333333333333" type="line"/>
      <point x="286.33333333333337" y="895.7333333333333" type="line"/>
      <point x="286.33333333333337" y="1103.0" type="line" smooth="yes"/>
      <point x="286.33333333333337" y="1379.71"/>
      <point x="438.55999999999995" y="1516.5"/>
      <point x="661.0" y="1516.5" type="curve" smooth="yes"/>
      <point x="768.2" y="1516.5"/>
      <point x="838.822" y="1501.928"/>
      <point x="932.6666666666666" y="1436.0" type="curve"/>
      <point x="828.6666666666666" y="1238.0" type="line"/>
      <point x="775.96" y="1276.5473333333334"/>
      <point x="746.2933333333333" y="1287.0"/>
      <point x="698.5" y="1287.0" type="curve" smooth="yes"/>
      <point x="609.39" y="1287.0"/>
      <point x="576.1160000000001" y="1228.49"/>
      <point x="581.8333333333334" y="1096.5" type="curve" smooth="yes"/>
      <point x="581.8333333333334" y="895.7333333333333" type="line"/>
    </contour>
  </outline>
</glyph>
<glyph name="schwa" format="2">
  <advance width="1050"/>
  <unicode hex="0259"/>
  <outline>
    <contour>
      <point x="976.6666666666666" y="543.0" type="curve" smooth="yes"/>
      <point x="976.6666666666666" y="511.0" type="line" smooth="yes"/>
      <point x="976.6666666666666" y="151.9246666666666"/>
      <point x="795.5466666666666" y="-30.5"/>
      <point x="495.8333333333333" y="-30.5" type="curve" smooth="yes"/>
      <point x="214.1206666666667" y="-30.5"/>
      <point x="45.0" y="147.378"/>
      <point x="45.0" y="493.5" type="curve" smooth="yes"/>
      <point x="45.0" y="600.0" type="line"/>
      <point x="774.1666666666666" y="600.0" type="line"/>
      <point x="774.1666666666666" y="410.0" type="line"/>
      <point x="339.5" y="410.0" type="line"/>
      <point x="339.0" y="392.0" type="line"/>
      <point x="339.0" y="249.02200000000002"/>
      <point x="397.70933333333335" y="184.0"/>
      <point x="496.3333333333333" y="184.0" type="curve" smooth="yes"/>
      <point x="608.5806666666667" y="184.0"/>
      <point x="681.1666666666666" y="267.0659999999999"/>
      <point x="681.1666666666666" y="495.0" type="curve" smooth="yes"/>
      <point x="681.1666666666666" y="558.5" type="line" smooth="yes"/>
      <point x="681.1666666666666" y="781.744"/>
      <point x="598.8626666666667" y="865.5"/>
      <point x="476.8333333333333" y="865.5" type="curve" smooth="yes"/>
      <point x="412.20066666666673" y="865.5"/>
      <point x="335.52466666666663" y="815.7526666666668"/>
      <point x="272.5" y="727.0" type="curve"/>
      <point x="64.0" y="864.5" type="line"/>
      <point x="153.86933333333332" y="1026.7740000000001"/>
      <point x="309.238" y="1085.5"/>
      <point x="471.3333333333333" y="1085.5" type="curve" smooth="yes"/>
      <point x="785.7866666666666" y="1085.5"/>
      <point x="976.6666666666666" y="902.7453333333334"/>
    </contour>
  </outline>
</glyph>
<glyph name="hookabovecomb" format="2">
  <advance width="1024"/>
  <unicode hex="0309"/>
  <outline>
    <contour>
      <point x="434.0" y="1138.5" type="line"/>
      <point x="434.0" y="1179.0" type="line" smooth="yes"/>
      <point x="434.0" y="1267.44"/>
      <point x="475.85" y="1317.94"/>
      <point x="573.0" y="1330.0" type="curve" smooth="yes"/>
      <point x="635.31" y="1338.04"/>
      <point x="654.0" y="1352.27"/>
      <point x="654.0" y="1398.5" type="curve" smooth="yes"/>
      <point x="654.0" y="1442.72"/>
      <point x="618.97" y="1462.0"/>
      <point x="558.0" y="1462.0" type="curve" smooth="yes"/>
      <point x="485.64" y="1462.0"/>
      <point x="390.24" y="1430.39"/>
      <point x="375.5" y="1419.0" type="curve"/>
      <point x="311.5" y="1565.0" type="line"/>
      <point x="361.08" y="1591.8"/>
      <point x="482.59" y="1627.5"/>
      <point x="598.5" y="1627.5" type="curve" smooth="yes"/>
      <point x="768.6800000000001" y="1627.5"/>
      <point x="858.0" y="1543.33"/>
      <point x="858.0" y="1410.0" type="curve" smooth="yes"/>
      <point x="858.0" y="1269.97"/>
      <point x="770.44" y="1185.74"/>
      <point x="581.5" y="1171.0" type="curve"/>
      <point x="581.5" y="1138.5" type="line"/>
    </contour>
  </outline>
</glyph>
<glyph name="breveinvertedcomb" format="2">
  <advance width="1024"/>
  <unicode hex="030F"/>
  <outline>
    <contour>
      <point x="282.5" y="1197.5" type="curve"/>
      <point x="140.0" y="1274.5" type="line"/>
      <point x="183.55" y="1403.81"/>
      <point x="322.39" y="1559.5"/>
      <point x="512.0" y="1559.5" type="curve" smooth="yes"/>
      <point x="683.52" y="1559.5"/>
      <point x="830.56" y="1425.42"/>
      <point x="885.5" y="1274.0" type="curve"/>
      <point x="741.0" y="1197.5" type="line"/>
      <point x="695.44" y="1271.2"/>
      <point x="614.01" y="1347.0"/>
      <point x="511.5" y="1347.0" type="curve" smooth="yes"/>
      <point x="402.96" y="1347.0"/>
      <point x="329.4" y="1275.89"/>
    </contour>
  </outline>
</glyph>
<glyph name="dotbelowcomb" format="2">
  <advance width="1024"/>
  <unicode hex="0323"/>
  <outline>
    <contour>
      <point x="356.0" y="-309.0" type="curve" smooth="yes"/>
      <point x="356.0" y="-221.89999999999998"/>
      <point x="410.65999999999997" y="-164.0"/>
      <point x="512.5" y="-164.0" type="curve" smooth="yes"/>
      <point x="610.99" y="-164.0"/>
      <point x="669.0" y="-224.57999999999998"/>
      <point x="669.0" y="-309.0" type="curve" smooth="yes"/>
      <point x="669.0" y="-396.1"/>
      <point x="613.84" y="-454.5"/>
      <point x="512.0" y="-454.5" type="curve" smooth="yes"/>
      <point x="412.84" y="-454.5"/>
      <point x="356.0" y="-393.42"/>
    </contour>
  </outline>
</glyph>
<glyph name="Psi" format="2">
  <advance width="1562"/>
  <unicode hex="03A8"/>
  <outline>
    <contour>
      <point x="642.1333333333333" y="0.0" type="line"/>
      <point x="642.1333333333333" y="1456.0" type="line"/>
      <point x="923.5" y="1456.0" type="line"/>
      <point x="923.5" y="0.0" type="line"/>
    </contour>
    <contour>
      <point x="737.3333333333334" y="333.0" type="line"/>
      <point x="700.0" y="333.0" type="line" smooth="yes"/>
      <point x="319.21666666666664" y="333.0"/>
      <point x="137.5" y="522.65"/>
      <point x="137.5" y="928.0" type="curve" smooth="yes"/>
      <point x="137.5" y="1456.0" type="line"/>
      <point x="423.9" y="1456.0" type="line"/>
      <point x="423.9" y="916.0" type="line" smooth="yes"/>
      <point x="423.9" y="592.7473333333332"/>
      <point x="574.4833333333333" y="566.5666666666667"/>
      <point x="700.6666666666666" y="566.5666666666667" type="curve" smooth="yes"/>
      <point x="737.3333333333334" y="566.5666666666667" type="line"/>
    </contour>
    <contour>
      <point x="822.3666666666667" y="333.0" type="line"/>
      <point x="822.3666666666667" y="566.5666666666667" type="line"/>
      <point x="864.8333333333334" y="566.5666666666667" type="line" smooth="yes"/>
      <point x="993.2053333333333" y="566.5666666666667"/>
      <point x="1143.3" y="592.7473333333332"/>
      <point x="1143.3" y="916.0" type="curve" smooth="yes"/>
      <point x="1143.3" y="1456.0" type="line"/>
      <point x="1422.7" y="1456.0" type="line"/>
      <point x="1422.7" y="928.0" type="line" smooth="yes"/>
      <point x="1422.7" y="522.65"/>
      <point x="1240.4833333333336" y="333.0"/>
      <point x="859.7" y="333.0" type="curve" smooth="yes"/>
    </contour>
  </outline>
</glyph>
<glyph name="alpha" format="2">
  <advance width="1137"/>
  <unicode hex="03B1"/>
  <anchor x="494.8095238095238" y="1077.357142857143" name="GRK_top"/>
  <outline>
    <contour>
      <point x="452.6333333333333" y="-20.0" type="curve" smooth="yes"/>
      <point x="223.58266666666665" y="-20.0"/>
      <point x="73.0" y="188.11285714285714"/>
      <point x="73.0" y="524.3571428571429" type="curve" smooth="yes"/>
      <point x="73.0" y="556.0" type="line" smooth="yes"/>
      <point x="73.0" y="883.4449523809524"/>
      <point x="228.18799999999996" y="1100.357142857143"/>
      <point x="445.0" y="1100.357142857143" type="curve" smooth="yes"/>
      <point x="552.1553333333334" y="1100.357142857143"/>
      <point x="630.102" y="1062.2064761904762"/>
      <point x="678.8333333333334" y="976.3571428571429" type="curve"/>
      <point x="681.2" y="976.3571428571429" type="line"/>
      <point x="686.6333333333333" y="1080.357142857143" type="line"/>
      <point x="962.3" y="1080.357142857143" type="line"/>
      <point x="962.3" y="298.1666666666667" type="line" smooth="yes"/>
      <point x="962.3" y="203.87533333333334"/>
      <point x="994.5273333333333" y="195.06666666666666"/>
      <point x="1031.4666666666667" y="195.06666666666666" type="curve" smooth="yes"/>
      <point x="1055.0059999999999" y="195.06666666666666"/>
      <point x="1077.5520000000001" y="202.75333333333333"/>
      <point x="1096.1333333333332" y="212.13333333333333" type="curve"/>
      <point x="1096.1333333333332" y="6.6" type="line"/>
      <point x="1078.3113333333333" y="-6.130000000000001"/>
      <point x="1009.0273333333332" y="-18.833333333333336"/>
      <point x="949.9333333333334" y="-18.833333333333336" type="curve"/>
      <point x="835.944" y="-18.833333333333336"/>
      <point x="762.0666666666667" y="18.09333333333332"/>
      <point x="730.8" y="122.16666666666667" type="curve"/>
      <point x="727.4333333333334" y="122.16666666666667" type="line"/>
      <point x="696.524" y="49.80666666666667"/>
      <point x="617.096" y="-20.0"/>
    </contour>
    <contour>
      <point x="523.3333333333334" y="200.23333333333335" type="curve" smooth="yes"/>
      <point x="585.0626666666666" y="200.23333333333335"/>
      <point x="648.65" y="241.60333333333335"/>
      <point x="674.3333333333334" y="328.03333333333336" type="curve"/>
      <point x="674.3333333333334" y="770.1238095238095" type="line"/>
      <point x="657.4939999999999" y="823.0984761904762"/>
      <point x="615.4073333333333" y="880.1238095238095"/>
      <point x="531.3" y="880.1238095238095" type="curve" smooth="yes"/>
      <point x="431.9166666666667" y="880.1238095238095"/>
      <point x="367.9666666666667" y="811.4356190476191"/>
      <point x="367.9666666666667" y="602.0" type="curve"/>
      <point x="367.9666666666667" y="487.0238095238095" type="line" smooth="yes"/>
      <point x="367.9666666666667" y="279.5088571428571"/>
      <point x="421.0913333333333" y="200.23333333333335"/>
    </contour>
  </outline>
</glyph>
<glyph name="beta" format="2">
  <advance width="1087"/>
  <unicode hex="03B2"/>
  <outline>
    <contour>
      <point x="130.0" y="-416.0" type="line"/>
      <point x="130.0" y="1058.0" type="line" smooth="yes"/>
      <point x="130.0" y="1400.37"/>
      <point x="294.032" y="1556.0"/>
      <point x="551.1333333333333" y="1556.0" type="curve" smooth="yes"/>
      <point x="796.1746666666667" y="1556.0"/>
      <point x="940.9" y="1415.1342857142859"/>
      <point x="940.9" y="1158.4285714285713" type="curve" smooth="yes"/>
      <point x="940.9" y="989.8757142857143"/>
      <point x="843.0179047619048" y="860.9242857142857"/>
      <point x="740.8333333333334" y="828.2857142857143" type="curve"/>
      <point x="740.8333333333334" y="854.2857142857143" type="line"/>
      <point x="919.8062857142858" y="817.5314285714286"/>
      <point x="1013.9666666666667" y="676.9"/>
      <point x="1013.9666666666667" y="467.2857142857143" type="curve" smooth="yes"/>
      <point x="1013.9666666666667" y="172.46019047619046"/>
      <point x="884.36" y="-19.933333333333334"/>
      <point x="653.4333333333334" y="-19.933333333333334" type="curve" smooth="yes"/>
      <point x="546.5013333333333" y="-19.933333333333334"/>
      <point x="468.3593333333333" y="8.771333333333331"/>
      <point x="418.4666666666667" y="81.53333333333333" type="curve"/>
      <point x="418.4666666666667" y="-416.0" type="line"/>
    </contour>
    <contour>
      <point x="558.6333333333333" y="200.73333333333335" type="curve" smooth="yes"/>
      <point x="645.8226666666667" y="200.73333333333335"/>
      <point x="717.4333333333334" y="265.8585714285714"/>
      <point x="717.4333333333334" y="457.0" type="curve" smooth="yes"/>
      <point x="717.4333333333334" y="618.47"/>
      <point x="675.3606666666667" y="690.860380952381"/>
      <point x="531.4" y="693.7190476190476" type="curve" smooth="yes"/>
      <point x="473.9" y="693.7190476190476" type="line"/>
      <point x="473.9" y="915.952380952381" type="line"/>
      <point x="529.4" y="915.952380952381" type="line" smooth="yes"/>
      <point x="631.393142857143" y="915.952380952381"/>
      <point x="655.3" y="993.9285714285713"/>
      <point x="655.3" y="1127.9285714285713" type="curve" smooth="yes"/>
      <point x="655.3" y="1281.3777142857143"/>
      <point x="612.4446666666665" y="1334.7666666666667"/>
      <point x="540.9333333333334" y="1334.7666666666667" type="curve" smooth="yes"/>
      <point x="463.34733333333327" y="1334.7666666666667"/>
      <point x="418.4666666666667" y="1277.1406666666667"/>
      <point x="418.4666666666667" y="1097.0" type="curve" smooth="yes"/>
      <point x="418.4666666666667" y="312.6666666666667" type="line"/>
      <point x="446.562" y="236.59933333333333"/>
      <point x="508.96400000000006" y="200.73333333333335"/>
    </contour>
  </outline>
</glyph>
<glyph name="gamma" format="2">
  <advance width="852"/>
  <unicode hex="03B3"/>
  <outline>
    <contour>
      <point x="287.06666666666666" y="-366.0" type="line"/>
      <point x="287.06666666666666" y="25.428571428571427" type="line"/>
      <point x="-21.0" y="1079.857142857143" type="line"/>
      <point x="280.0" y="1079.857142857143" type="line"/>
      <point x="406.43333333333334" y="471.3809523809524" type="line" smooth="yes"/>
      <point x="424.4148571428571" y="399.0209523809524"/>
      <point x="429.8137142857143" y="352.3599047619048"/>
      <point x="430.8857142857143" y="311.2857142857143" type="curve"/>
      <point x="436.31904761904764" y="311.2857142857143" type="line"/>
      <point x="437.3910476190476" y="352.3599047619048"/>
      <point x="443.1865714285714" y="398.06380952380954"/>
      <point x="461.8380952380952" y="471.3809523809524" type="curve" smooth="yes"/>
      <point x="599.2666666666667" y="1079.857142857143" type="line"/>
      <point x="865.7" y="1079.857142857143" type="line"/>
      <point x="552.6333333333333" y="21.428571428571427" type="line"/>
      <point x="552.6333333333333" y="-366.0" type="line"/>
    </contour>
  </outline>
</glyph>
<glyph name="delta" format="2">
  <advance width="1042"/>
  <unicode hex="03B4"/>
  <outline>
    <contour>
      <point x="522.5380952380953" y="-30.0" type="curve" smooth="yes"/>
      <point x="803.580761904762" y="-30.0"/>
      <point x="975.6666666666666" y="186.5194285714286"/>
      <point x="975.6666666666666" y="474.54285714285714" type="curve" smooth="yes"/>
      <point x="975.6666666666666" y="496.79047619047617" type="line" smooth="yes"/>
      <point x="975.6666666666666" y="762.6081904761905"/>
      <point x="848.5740000000001" y="920.0507619047619"/>
      <point x="650.5666666666666" y="1056.9285714285713" type="curve" smooth="yes"/>
      <point x="528.1353333333334" y="1146.4278095238096"/>
      <point x="500.53" y="1184.7215238095237"/>
      <point x="501.2" y="1244.5238095238096" type="curve" smooth="yes"/>
      <point x="501.87" y="1298.066380952381"/>
      <point x="535.4726666666667" y="1337.7"/>
      <point x="612.4333333333334" y="1337.7" type="curve"/>
      <point x="687.7413333333333" y="1337.7"/>
      <point x="779.304" y="1303.07"/>
      <point x="854.4333333333334" y="1255.5" type="curve"/>
      <point x="888.1666666666666" y="1477.0" type="line"/>
      <point x="833.45" y="1517.87"/>
      <point x="708.872" y="1556.0"/>
      <point x="567.1" y="1556.0" type="curve"/>
      <point x="309.4626666666666" y="1556.0"/>
      <point x="195.93" y="1426.9782857142857"/>
      <point x="196.6" y="1253.952380952381" type="curve"/>
      <point x="195.93" y="1113.0609523809524"/>
      <point x="259.496" y="1014.059238095238"/>
      <point x="497.0333333333333" y="869.4285714285714" type="curve" smooth="yes"/>
      <point x="613.9196190476191" y="785.6275238095238"/>
      <point x="688.5666666666666" y="685.6721904761905"/>
      <point x="688.5666666666666" y="480.6904761904762" type="curve" smooth="yes"/>
      <point x="688.5666666666666" y="450.6333333333333" type="line" smooth="yes"/>
      <point x="688.5666666666666" y="266.428"/>
      <point x="629.9341904761905" y="182.56666666666666"/>
      <point x="523.2" y="182.56666666666666" type="curve" smooth="yes"/>
      <point x="417.60799999999995" y="182.56666666666666"/>
      <point x="363.8666666666667" y="264.68666666666667"/>
      <point x="363.8666666666667" y="455.6047619047619" type="curve" smooth="yes"/>
      <point x="363.8666666666667" y="476.0952380952381" type="line" smooth="yes"/>
      <point x="363.8666666666667" y="682.9401904761905"/>
      <point x="436.32399999999996" y="806.1659047619048"/>
      <point x="583.3666666666667" y="872.3619047619047" type="curve"/>
      <point x="471.2" y="1009.0952380952381" type="line"/>
      <point x="196.36600000000004" y="938.745238095238"/>
      <point x="78.33333333333333" y="729.8208571428572"/>
      <point x="78.33333333333333" y="476.1333333333333" type="curve" smooth="yes"/>
      <point x="78.33333333333333" y="465.0190476190476" type="line" smooth="yes"/>
      <point x="78.33333333333333" y="148.60676190476187"/>
      <point x="222.73542857142854" y="-30.0"/>
    </contour>
  </outline>
</glyph>
<glyph name="iota" format="2">
  <advance width="593"/>
  <unicode hex="03B9"/>
  <anchor x="270.93333333333334" y="1079.857142857143" name="GRK_top"/>
  <outline>
    <contour>
      <point x="420.1333333333333" y="-29.5" type="curve" smooth="yes"/>
      <point x="239.05466666666666" y="-29.5"/>
      <point x="120.0" y="76.14999999999998"/>
      <point x="120.0" y="314.0" type="curve" smooth="yes"/>
      <point x="121.0" y="1079.857142857143" type="line"/>
      <point x="407.4666666666667" y="1079.857142857143" type="line"/>
      <point x="407.4666666666667" y="312.5333333333333" type="line" smooth="yes"/>
      <point x="407.4666666666667" y="208.14733333333334"/>
      <point x="436.00600000000003" y="188.66666666666666"/>
      <point x="483.93333333333334" y="188.66666666666666" type="curve" smooth="yes"/>
      <point x="507.6066666666667" y="188.66666666666666"/>
      <point x="530.37" y="194.802"/>
      <point x="552.0333333333333" y="203.33333333333334" type="curve"/>
      <point x="552.0333333333333" y="1.0" type="line"/>
      <point x="526.9306666666666" y="-15.080000000000002"/>
      <point x="476.458" y="-29.5"/>
    </contour>
  </outline>
</glyph>
<glyph name="lambda" format="2">
  <advance width="850"/>
  <unicode hex="03BB"/>
  <outline>
    <contour>
      <point x="-21.0" y="0.0" type="line"/>
      <point x="317.6047619047619" y="1054.9285714285713" type="line"/>
      <point x="304.87619047619046" y="1099.9285714285713" type="line" smooth="yes"/>
      <point x="254.96438095238096" y="1275.7557142857142"/>
      <point x="199.04809523809524" y="1314.0"/>
      <point x="108.02380952380952" y="1314.0" type="curve"/>
      <point x="78.16095238095238" y="1314.0"/>
      <point x="59.92742857142857" y="1306.72"/>
      <point x="31.76190476190476" y="1296.0" type="curve"/>
      <point x="28.26190476190476" y="1529.0" type="line"/>
      <point x="60.44742857142857" y="1543.07"/>
      <point x="111.96" y="1556.0"/>
      <point x="190.5095238095238" y="1556.0" type="curve" smooth="yes"/>
      <point x="405.3561904761905" y="1556.0"/>
      <point x="480.9678095238095" y="1443.9513333333332"/>
      <point x="545.1857142857143" y="1217.0" type="curve" smooth="yes"/>
      <point x="874.6571428571428" y="0.0" type="line"/>
      <point x="571.9238095238095" y="0.0" type="line"/>
      <point x="458.3619047619048" y="525.8761904761905" type="line" smooth="yes"/>
      <point x="456.86238095238093" y="550.8831428571428"/>
      <point x="430.91866666666664" y="656.912380952381"/>
      <point x="432.9095238095238" y="692.0714285714286" type="curve"/>
      <point x="428.4761904761905" y="692.0714285714286" type="line"/>
      <point x="422.75247619047616" y="650.0592380952381"/>
      <point x="412.65638095238097" y="591.9915238095239"/>
      <point x="395.9" y="526.3761904761905" type="curve" smooth="yes"/>
      <point x="256.3" y="0.0" type="line"/>
    </contour>
  </outline>
</glyph>
<glyph name="mu" format="2">
  <advance width="1135"/>
  <unicode hex="03BC"/>
  <outline>
    <contour>
      <point x="130.0" y="-416.0" type="line"/>
      <point x="130.0" y="1079.357142857143" type="line"/>
      <point x="418.9666666666667" y="1079.357142857143" type="line"/>
      <point x="418.9666666666667" y="302.9666666666667" type="line"/>
      <point x="440.0046666666667" y="219.52933333333328"/>
      <point x="482.47866666666664" y="203.86666666666667"/>
      <point x="531.4333333333334" y="203.86666666666667" type="curve" smooth="yes"/>
      <point x="638.9013333333334" y="203.86666666666667"/>
      <point x="667.5666666666666" y="240.16733333333335"/>
      <point x="667.5666666666666" y="400.8333333333333" type="curve" smooth="yes"/>
      <point x="667.5666666666666" y="1080.357142857143" type="line"/>
      <point x="955.5333333333333" y="1080.357142857143" type="line"/>
      <point x="955.5333333333333" y="296.6666666666667" type="line" smooth="yes"/>
      <point x="955.5333333333333" y="203.04533333333333"/>
      <point x="988.9759999999999" y="195.06666666666666"/>
      <point x="1022.8333333333334" y="195.06666666666666" type="curve" smooth="yes"/>
      <point x="1048.1146666666666" y="195.06666666666666"/>
      <point x="1070.2046666666665" y="202.08333333333331"/>
      <point x="1089.3666666666668" y="212.13333333333333" type="curve"/>
      <point x="1089.3666666666668" y="6.6" type="line"/>
      <point x="1062.8346666666666" y="-9.480000000000002"/>
      <point x="991.0673333333333" y="-18.833333333333336"/>
      <point x="941.8" y="-18.833333333333336" type="curve" smooth="yes"/>
      <point x="828.2126666666667" y="-18.833333333333336"/>
      <point x="754.0773333333333" y="17.01533333333333"/>
      <point x="722.9" y="127.83333333333333" type="curve"/>
      <point x="719.5333333333333" y="127.83333333333333" type="line"/>
      <point x="693.448" y="49.086"/>
      <point x="630.954" y="-21.066666666666666"/>
      <point x="535.2333333333333" y="-21.066666666666666" type="curve" smooth="yes"/>
      <point x="488.1993333333333" y="-21.066666666666666"/>
      <point x="443.31" y="7.4040000000000035"/>
      <point x="418.9666666666667" y="55.733333333333334" type="curve"/>
      <point x="418.9666666666667" y="-416.0" type="line"/>
    </contour>
  </outline>
</glyph>
<glyph name="finalsigma" format="2">
  <advance width="968"/>
  <unicode hex="03C2"/>
  <outline>
    <contour>
      <point x="588.1333333333333" y="-348.0" type="line"/>
      <point x="609.5286666666667" y="-270.32466666666664"/>
      <point x="621.5333333333333" y="-198.26666666666665"/>
      <point x="621.5333333333333" y="-144.66666666666666" type="curve"/>
      <point x="621.5333333333333" y="-70.96666666666665"/>
      <point x="601.2366666666667" y="-37.6"/>
      <point x="515.7" y="-17.5" type="curve" smooth="yes"/>
      <point x="401.3" y="8.733333333333333" type="line" smooth="yes"/>
      <point x="195.52066666666667" y="54.606"/>
      <point x="73.0" y="165.6288571428571"/>
      <point x="73.0" y="494.1904761904762" type="curve" smooth="yes"/>
      <point x="73.0" y="556.0" type="line" smooth="yes"/>
      <point x="73.0" y="931.9976190476191"/>
      <point x="256.0206666666666" y="1110.357142857143"/>
      <point x="544.4333333333334" y="1110.357142857143" type="curve" smooth="yes"/>
      <point x="816.364" y="1110.357142857143"/>
      <point x="957.3333333333334" y="902.3038095238095"/>
      <point x="957.3333333333334" y="709.7904761904762" type="curve" smooth="yes"/>
      <point x="957.3333333333334" y="701.5714285714286" type="line"/>
      <point x="676.3666666666667" y="701.5714285714286" type="line"/>
      <point x="676.3666666666667" y="718.8571428571429" type="line" smooth="yes"/>
      <point x="676.3666666666667" y="818.0171428571429"/>
      <point x="639.6313333333333" y="893.0571428571428"/>
      <point x="537.3" y="893.0571428571428" type="curve" smooth="yes"/>
      <point x="410.84866666666665" y="893.0571428571428"/>
      <point x="368.9666666666667" y="800.5151428571428"/>
      <point x="368.9666666666667" y="562.3333333333334" type="curve" smooth="yes"/>
      <point x="368.9666666666667" y="513.1904761904761" type="line" smooth="yes"/>
      <point x="368.9666666666667" y="349.80619047619047"/>
      <point x="409.7786666666667" y="285.582"/>
      <point x="501.1666666666667" y="264.6333333333333" type="curve" smooth="yes"/>
      <point x="628.5333333333333" y="235.76666666666665" type="line" smooth="yes"/>
      <point x="794.7379999999999" y="199.274"/>
      <point x="869.2666666666667" y="106.93200000000002"/>
      <point x="869.2666666666667" y="-33.5" type="curve" smooth="yes"/>
      <point x="870.0260000000001" y="-105.86"/>
      <point x="849.2139999999999" y="-220.7"/>
      <point x="806.2" y="-348.0" type="curve"/>
    </contour>
  </outline>
</glyph>
<glyph name="sigma" format="2">
  <advance width="1133"/>
  <unicode hex="03C3"/>
  <outline>
    <contour>
      <point x="539" y="-30.0" type="curve" smooth="yes"/>
      <point x="255" y="-30.0"/>
      <point x="73.0" y="175"/>
      <point x="73.0" y="505" type="curve" smooth="yes"/>
      <point x="73.0" y="535.0" type="line" smooth="yes"/>
      <point x="73.0" y="869"/>
      <point x="268" y="1080"/>
      <point x="536" y="1080" type="curve" smooth="yes"/>
      <point x="1092" y="1080" type="line"/>
      <point x="1092" y="848" type="line"/>
      <point x="825" y="848" type="line"/>
      <point x="825" y="940" type="line"/>
      <point x="930" y="877"/>
      <point x="1004" y="762"/>
      <point x="1004" y="539.0" type="curve" smooth="yes"/>
      <point x="1004" y="509" type="line" smooth="yes"/>
      <point x="1004" y="179"/>
      <point x="824" y="-30.0"/>
    </contour>
    <contour>
      <point x="540" y="191" type="curve" smooth="yes"/>
      <point x="647" y="191"/>
      <point x="710" y="271"/>
      <point x="710" y="501" type="curve" smooth="yes"/>
      <point x="710" y="553.0" type="line" smooth="yes"/>
      <point x="710" y="781"/>
      <point x="646" y="860"/>
      <point x="534" y="860" type="curve" smooth="yes"/>
      <point x="423" y="860"/>
      <point x="368" y="773"/>
      <point x="368" y="551.0" type="curve" smooth="yes"/>
      <point x="368" y="499" type="line" smooth="yes"/>
      <point x="368" y="269"/>
      <point x="431" y="191"/>
    </contour>
  </outline>
</glyph>
<glyph name="phi" format="2">
  <advance width="1455"/>
  <unicode hex="03C6"/>
  <outline>
    <contour>
      <point x="584" y="-416.0" type="line"/>
      <point x="584" y="-30.0" type="line"/>
      <point x="257" y="-14"/>
      <point x="73.0" y="168"/>
      <point x="73.0" y="521" type="curve" smooth="yes"/>
      <point x="73.0" y="548" type="line" smooth="yes"/>
      <point x="73.0" y="904"/>
      <point x="257" y="1094"/>
      <point x="584" y="1110" type="curve"/>
      <point x="584" y="1531.0" type="line"/>
      <point x="872" y="1531.0" type="line"/>
      <point x="872" y="1110" type="line"/>
      <point x="1208" y="1094"/>
      <point x="1383" y="904"/>
      <point x="1383" y="548" type="curve" smooth="yes"/>
      <point x="1383" y="521" type="line" smooth="yes"/>
      <point x="1383" y="168"/>
      <point x="1208" y="-14"/>
      <point x="872" y="-30.0" type="curve"/>
      <point x="872" y="-416.0" type="line"/>
    </contour>
    <contour>
      <point x="584" y="191" type="curve"/>
      <point x="584" y="890" type="line"/>
      <point x="448" y="883"/>
      <point x="368" y="783"/>
      <point x="368" y="580" type="curve" smooth="yes"/>
      <point x="368" y="489" type="line" smooth="yes"/>
      <point x="368" y="289"/>
      <point x="459" y="198"/>
    </contour>
    <contour>
      <point x="872" y="191" type="line"/>
      <point x="1015" y="198"/>
      <point x="1088" y="289"/>
      <point x="1088" y="489" type="curve" smooth="yes"/>
      <point x="1088" y="580" type="line" smooth="yes"/>
      <point x="1088" y="783"/>
      <point x="1003" y="883"/>
      <point x="872" y="890" type="curve"/>
    </contour>
  </outline>
</glyph>
<glyph name="psi" format="2">
  <advance width="1439"/>
  <unicode hex="03C8"/>
  <outline>
    <contour>
      <point x="622.6666666666666" y="-412.5" type="line"/>
      <point x="622.6666666666666" y="-20.5" type="line"/>
      <point x="276.8573333333334" y="-13.8"/>
      <point x="120.0" y="127.06"/>
      <point x="120.0" y="483.5" type="curve" smooth="yes"/>
      <point x="120.0" y="1079.857142857143" type="line"/>
      <point x="408.4666666666667" y="1079.857142857143" type="line"/>
      <point x="408.4666666666667" y="493.5" type="line" smooth="yes"/>
      <point x="408.4666666666667" y="293.16999999999996"/>
      <point x="464.8593333333333" y="212.55666666666664"/>
      <point x="622.6666666666666" y="201.16666666666669" type="curve"/>
      <point x="622.6666666666666" y="1540.0" type="line"/>
      <point x="897.1333333333333" y="1539.5" type="line"/>
      <point x="897.1333333333333" y="200.66666666666669" type="line"/>
      <point x="1052.3500000000001" y="211.38666666666666"/>
      <point x="1112.4" y="290.49"/>
      <point x="1112.4" y="493.5" type="curve" smooth="yes"/>
      <point x="1112.4" y="1079.857142857143" type="line"/>
      <point x="1401.9333333333334" y="1079.857142857143" type="line"/>
      <point x="1401.9333333333334" y="483.5" type="line" smooth="yes"/>
      <point x="1401.9333333333334" y="127.06"/>
      <point x="1244.372" y="-13.8"/>
      <point x="897.1333333333333" y="-20.5" type="curve"/>
      <point x="897.1333333333333" y="-412.5" type="line"/>
    </contour>
  </outline>
</glyph>
<glyph name="De" format="2">
  <advance width="1308"/>
  <unicode hex="0414"/>
  <outline>
    <contour>
      <point x="1012.0" y="-290.0" type="line"/>
      <point x="1012.0" y="0.0" type="line"/>
      <point x="291.6666666666667" y="0.0" type="line"/>
      <point x="291.6666666666667" y="-290.0" type="line"/>
      <point x="4.666666666666667" y="-290.0" type="line"/>
      <point x="4.666666666666667" y="228.73333333333335" type="line"/>
      <point x="1299.0" y="228.73333333333335" type="line"/>
      <point x="1299.0" y="-290.0" type="line"/>
    </contour>
    <contour>
      <point x="242.8" y="1456.0" type="line"/>
      <point x="1140.3333333333333" y="1456.0" type="line"/>
      <point x="1140.3333333333333" y="0.0" type="line"/>
      <point x="841.8666666666667" y="0.0" type="line"/>
      <point x="841.8666666666667" y="1227.2666666666667" type="line"/>
      <point x="487.4666666666667" y="1227.2666666666667" type="line"/>
      <point x="454.23333333333335" y="519.7" type="line" smooth="yes"/>
      <point x="446.0593333333333" y="337.23666666666657"/>
      <point x="425.532" y="220.526"/>
      <point x="376.6666666666667" y="123.73333333333333" type="curve"/>
      <point x="108.66666666666666" y="123.73333333333333" type="line"/>
      <point x="166.06333333333333" y="225.4393333333333"/>
      <point x="191.19333333333336" y="368.5333333333333"/>
      <point x="201.46666666666667" y="569.5333333333333" type="curve" smooth="yes"/>
    </contour>
  </outline>
</glyph>
<glyph name="be" format="2">
  <advance width="1079"/>
  <unicode hex="0431"/>
  <outline>
    <contour>
      <point x="373.4666666666667" y="564.6666666666666" type="curve" smooth="yes"/>
      <point x="373.4666666666667" y="468.6666666666667" type="line" smooth="yes"/>
      <point x="373.4666666666667" y="268.55999999999995"/>
      <point x="429.748959064322" y="191.23333333333335"/>
      <point x="543.1333333333333" y="191.23333333333335" type="curve" smooth="yes"/>
      <point x="656.1846666666667" y="191.23333333333335"/>
      <point x="713.3666666666667" y="268.55999999999995"/>
      <point x="713.3666666666667" y="468.6666666666667" type="curve" smooth="yes"/>
      <point x="713.3666666666667" y="564.6666666666666" type="line" smooth="yes"/>
      <point x="713.3666666666667" y="761.8700000000001"/>
      <point x="664.4206666666666" y="835.6"/>
      <point x="544.1333333333333" y="835.6" type="curve" smooth="yes"/>
      <point x="421.836" y="835.6"/>
      <point x="373.4666666666667" y="754.7233333333334"/>
    </contour>
    <contour>
      <point x="618.2333333333333" y="1054.3333333333333" type="curve" smooth="yes"/>
      <point x="850.4999999999999" y="1054.3333333333333"/>
      <point x="1009.3333333333334" y="868.1022257495447"/>
      <point x="1009.3333333333334" y="532.6666666666666" type="curve" smooth="yes"/>
      <point x="1009.3333333333334" y="500.6666666666667" type="line" smooth="yes"/>
      <point x="1009.3333333333334" y="152.80266666666665"/>
      <point x="821.0753333333334" y="-30.0"/>
      <point x="544.6333333333333" y="-30.0" type="curve" smooth="yes"/>
      <point x="251.26266666666663" y="-30.0"/>
      <point x="78.0" y="163.3093333333333"/>
      <point x="78.0" y="503.1333333333333" type="curve" smooth="yes"/>
      <point x="78.0" y="686.0" type="line" smooth="yes"/>
      <point x="78.0" y="1124.3204102414597"/>
      <point x="209.63827701381268" y="1390.9804030191565"/>
      <point x="520.1" y="1447.6666666666667" type="curve" smooth="yes"/>
      <point x="729.2213935224443" y="1486.026091394699"/>
      <point x="713.9601726993851" y="1501.5761847913236"/>
      <point x="720.4666666666667" y="1536.0" type="curve"/>
      <point x="978.4666666666667" y="1536.0" type="line"/>
      <point x="969.7725157453153" y="1326.117564654844"/>
      <point x="890.3334481267043" y="1265.475212279405"/>
      <point x="636.6333333333333" y="1224.6" type="curve" smooth="yes"/>
      <point x="391.46504000820977" y="1181.9409509863228"/>
      <point x="319.67625353508754" y="1072.4139178385178"/>
      <point x="305.3666666666667" y="855.2666666666667" type="curve"/>
      <point x="312.1" y="855.7666666666667" type="line"/>
      <point x="356.3456164037726" y="980.3190883837931"/>
      <point x="449.572" y="1054.3333333333333"/>
    </contour>
  </outline>
</glyph>
<glyph name="yu" format="2">
  <advance width="1520"/>
  <unicode hex="044E"/>
  <guideline x="571.4" y="661.9333333333334" angle="90.0" identifier="yUVFXGYgv5"/>
  <outline>
    <contour>
      <point x="130.0" y="1055.0" type="line"/>
      <point x="418.4666666666667" y="1055.0" type="line"/>
      <point x="418.4666666666667" y="650.5" type="line"/>
      <point x="673.3333333333334" y="650.5" type="line"/>
      <point x="673.3333333333334" y="428.0" type="line"/>
      <point x="418.4666666666667" y="428.0" type="line"/>
      <point x="418.4666666666667" y="0.0" type="line"/>
      <point x="130.0" y="0.0" type="line"/>
    </contour>
    <contour>
      <point x="526.1666666666666" y="512.0" type="curve" smooth="yes"/>
      <point x="526.1666666666666" y="544.0" type="line" smooth="yes"/>
      <point x="526.1666666666666" y="906.2466666666667"/>
      <point x="712.6926666666667" y="1085.5"/>
      <point x="986.6333333333333" y="1085.5" type="curve" smooth="yes"/>
      <point x="1260.574" y="1085.5"/>
      <point x="1448.1666666666667" y="906.2466666666667"/>
      <point x="1448.1666666666667" y="544.0" type="curve" smooth="yes"/>
      <point x="1448.1666666666667" y="512.0" type="line" smooth="yes"/>
      <point x="1448.1666666666667" y="149.75333333333327"/>
      <point x="1260.574" y="-30.0"/>
      <point x="986.6333333333333" y="-30.0" type="curve" smooth="yes"/>
      <point x="712.6926666666667" y="-30.0"/>
      <point x="526.1666666666666" y="149.75333333333327"/>
    </contour>
    <contour>
      <point x="821.6333333333333" y="590.0" type="curve" smooth="yes"/>
      <point x="821.6333333333333" y="466.0" type="line" smooth="yes"/>
      <point x="821.6333333333333" y="263.40548427670933"/>
      <point x="881.4433333333333" y="191.23333333333335"/>
      <point x="986.6333333333333" y="191.23333333333335" type="curve" smooth="yes"/>
      <point x="1091.1533333333332" y="191.23333333333335"/>
      <point x="1152.2" y="263.40548427670933"/>
      <point x="1152.2" y="466.0" type="curve" smooth="yes"/>
      <point x="1152.2" y="590.0" type="line" smooth="yes"/>
      <point x="1152.2" y="798.9953333333334"/>
      <point x="1095.6200000000001" y="864.2666666666667"/>
      <point x="986.6333333333333" y="864.2666666666667" type="curve" smooth="yes"/>
      <point x="876.9766666666666" y="864.2666666666667"/>
      <point x="821.6333333333333" y="791.8486666666666"/>
    </contour>
  </outline>
</glyph>
<glyph name="lje" format="2">
  <advance width="1549"/>
  <unicode hex="0459"/>
  <outline>
    <contour>
      <point x="944.1333333333333" y="1055.0" type="line"/>
      <point x="944.1333333333333" y="704.3333333333334" type="line"/>
      <point x="1094.8" y="704.3333333333334" type="line" smooth="yes"/>
      <point x="1356.4126666666666" y="704.3333333333334"/>
      <point x="1496.2666666666667" y="572.268"/>
      <point x="1496.2666666666667" y="348.6666666666667" type="curve" smooth="yes"/>
      <point x="1496.2666666666667" y="117.02533333333332"/>
      <point x="1349.0426666666667" y="0.0"/>
      <point x="1094.8" y="0.0" type="curve" smooth="yes"/>
      <point x="655.6666666666666" y="0.0" type="line"/>
      <point x="655.6666666666666" y="832.5" type="line"/>
      <point x="443.5333333333333" y="832.5" type="line"/>
      <point x="432.23333333333335" y="389.73333333333335" type="line" smooth="yes"/>
      <point x="426.15866666666665" y="154.96533333333332"/>
      <point x="375.014" y="-19.233333333333334"/>
      <point x="137.7" y="-19.233333333333334" type="curve" smooth="yes"/>
      <point x="79.142" y="-19.233333333333334"/>
      <point x="48.72066666666667" y="-11.034000000000002"/>
      <point x="20.0" y="0.2666666666666666" type="curve"/>
      <point x="20.0" y="233.76666666666665" type="line"/>
      <point x="40.01066666666667" y="225.05666666666664"/>
      <point x="49.663333333333334" y="220.76666666666665"/>
      <point x="77.13333333333333" y="220.76666666666665" type="curve" smooth="yes"/>
      <point x="149.806" y="220.76666666666665"/>
      <point x="174.32933333333332" y="314.63599999999997"/>
      <point x="175.13333333333333" y="392.26666666666665" type="curve" smooth="yes"/>
      <point x="193.86666666666667" y="1055.0" type="line"/>
    </contour>
    <contour>
      <point x="1034.3" y="500.3333333333333" type="curve" smooth="yes"/>
      <point x="944.1333333333333" y="500.3333333333333" type="line"/>
      <point x="944.1333333333333" y="204.0" type="line"/>
      <point x="1034.3" y="204.0" type="line" smooth="yes"/>
      <point x="1163.61" y="204.0"/>
      <point x="1206.8" y="258.53533333333337"/>
      <point x="1206.8" y="354.1666666666667" type="curve" smooth="yes"/>
      <point x="1206.8" y="442.42800000000005"/>
      <point x="1163.61" y="500.3333333333333"/>
    </contour>
  </outline>
</glyph>
<glyph name="chedescender-cy" format="2">
  <advance width="1077"/>
  <unicode hex="04B7"/>
  <outline>
    <contour>
      <point x="928.5333333333333" y="222.5" type="line"/>
      <point x="1056.8666666666668" y="222.5" type="line"/>
      <point x="1056.8666666666668" y="-270.0" type="line"/>
      <point x="777.8666666666667" y="-270.0" type="line"/>
      <point x="777.8666666666667" y="0.0" type="line"/>
      <point x="640.0666666666666" y="0.0" type="line"/>
      <point x="640.0666666666666" y="1055.0" type="line"/>
      <point x="928.5333333333333" y="1055.0" type="line"/>
    </contour>
    <contour>
      <point x="393.8" y="1055.0" type="line"/>
      <point x="393.8" y="772.5" type="line" smooth="yes"/>
      <point x="393.8" y="631.6213333333333"/>
      <point x="434.7726666666666" y="588.5"/>
      <point x="551.9333333333334" y="588.5" type="curve" smooth="yes"/>
      <point x="646.8946666666666" y="588.5"/>
      <point x="689.2493333333333" y="596.3746666666666"/>
      <point x="784.3" y="621.5666666666667" type="curve"/>
      <point x="784.3" y="405.56666666666666" type="line"/>
      <point x="688.9813333333333" y="385.82399999999996"/>
      <point x="600.8906666666667" y="372.5"/>
      <point x="479.93333333333334" y="372.5" type="curve" smooth="yes"/>
      <point x="227.29866666666663" y="372.5"/>
      <point x="105.33333333333333" y="466.4946666666666"/>
      <point x="105.33333333333333" y="744.5" type="curve" smooth="yes"/>
      <point x="105.33333333333333" y="1055.0" type="line"/>
    </contour>
  </outline>
</glyph>
<glyph name="Euro" format="2">
  <advance width="1036"/>
  <unicode hex="20AC"/>
  <outline>
    <contour>
      <point x="728.6666666666666" y="993.2333333333333" type="line"/>
      <point x="731.6666666666666" y="816.7666666666667" type="line"/>
      <point x="22.0" y="816.7666666666667" type="line"/>
      <point x="22.0" y="993.2333333333333" type="line"/>
    </contour>
    <contour>
      <point x="731.6666666666666" y="667.2333333333333" type="line"/>
      <point x="731.6666666666666" y="491.76666666666665" type="line"/>
      <point x="22.0" y="491.76666666666665" type="line"/>
      <point x="22.0" y="667.2333333333333" type="line"/>
    </contour>
    <contour>
      <point x="130.33333333333334" y="544.0" type="curve" smooth="yes"/>
      <point x="130.33333333333334" y="903.0" type="line" smooth="yes"/>
      <point x="130.33333333333334" y="1233.3993333333333"/>
      <point x="279.3653333333333" y="1484.0"/>
      <point x="621.3333333333334" y="1484.0" type="curve" smooth="yes"/>
      <point x="741.9780000000001" y="1484.0"/>
      <point x="879.2026666666666" y="1435.1033333333335"/>
      <point x="979.1666666666666" y="1325.0" type="curve"/>
      <point x="815.6666666666666" y="1141.0" type="line"/>
      <point x="755.724" y="1206.3919999999998"/>
      <point x="680.2886666666666" y="1241.0"/>
      <point x="646.8333333333334" y="1241.0" type="curve" smooth="yes"/>
      <point x="486.56933333333336" y="1241.0"/>
      <point x="439.3333333333333" y="1106.5086666666666"/>
      <point x="439.3333333333333" y="906.0" type="curve" smooth="yes"/>
      <point x="439.3333333333333" y="541.0" type="line" smooth="yes"/>
      <point x="439.3333333333333" y="341.3846666666666"/>
      <point x="488.8506666666667" y="212.0"/>
      <point x="657.3333333333334" y="212.0" type="curve" smooth="yes"/>
      <point x="696.5506666666666" y="212.0"/>
      <point x="752.0160000000001" y="242.13866666666667"/>
      <point x="833.6666666666666" y="317.0" type="curve"/>
      <point x="994.6666666666666" y="148.5" type="line"/>
      <point x="887.8240000000001" y="23.38866666666665"/>
      <point x="748.1766666666666" y="-30.0"/>
      <point x="623.3333333333334" y="-30.0" type="curve" smooth="yes"/>
      <point x="271.6726666666666" y="-30.0"/>
      <point x="130.33333333333334" y="191.80333333333334"/>
    </contour>
  </outline>
</glyph>
<glyph name="uni20B5" format="2">
  <advance width="1136"/>
  <unicode hex="20B5"/>
  <guideline x="0" y="-125.0" angle="0" identifier="1Am3eQoiKr"/>
  <outline>
    <contour>
      <point x="493.93333333333334" y="-190.0" type="line"/>
      <point x="493.93333333333334" y="47.0" type="line"/>
      <point x="509.43333333333334" y="61.0" type="line"/>
      <point x="509.43333333333334" y="708.0" type="line"/>
      <point x="638.4" y="708.0" type="line"/>
      <point x="638.4" y="60.0" type="line"/>
      <point x="655.4" y="50.0" type="line"/>
      <point x="655.4" y="-190.0" type="line"/>
    </contour>
    <contour>
      <point x="509.43333333333334" y="708.0" type="line"/>
      <point x="509.43333333333334" y="1352.0" type="line"/>
      <point x="496.93333333333334" y="1362.0" type="line"/>
      <point x="496.93333333333334" y="1582.0" type="line"/>
      <point x="648.4" y="1582.0" type="line"/>
      <point x="648.4" y="1362.0" type="line"/>
      <point x="638.4" y="1349.0" type="line"/>
      <point x="638.4" y="708.0" type="line"/>
    </contour>
    <contour>
      <point x="774.3333333333334" y="434.5" type="curve" smooth="yes"/>
      <point x="774.3333333333334" y="484.5" type="line"/>
      <point x="1064.8333333333333" y="481.0" type="line"/>
      <point x="1064.3333333333333" y="444.0" type="line" smooth="yes"/>
      <point x="1064.3780000000002" y="166.53066666666666"/>
      <point x="901.6666666666666" y="-15.0"/>
      <point x="566.6666666666666" y="-15.0" type="curve" smooth="yes"/>
      <point x="270.5266666666667" y="-15.0"/>
      <point x="67.0" y="181.07"/>
      <point x="67.0" y="502.0" type="curve" smooth="yes"/>
      <point x="67.0" y="949.5" type="line" smooth="yes"/>
      <point x="67.0" y="1281.82"/>
      <point x="253.7166666666667" y="1484.5"/>
      <point x="578.6666666666666" y="1484.5" type="curve" smooth="yes"/>
      <point x="907.6366666666667" y="1484.5"/>
      <point x="1058.3033333333333" y="1310.29"/>
      <point x="1064.3333333333333" y="1017.5" type="curve" smooth="yes"/>
      <point x="1064.8333333333333" y="980.5" type="line"/>
      <point x="771.3333333333334" y="976.5" type="line"/>
      <point x="771.3333333333334" y="1017.5" type="line" smooth="yes"/>
      <point x="774.3706666666667" y="1142.79"/>
      <point x="737.0766666666666" y="1252.5"/>
      <point x="587.6666666666666" y="1252.5" type="curve" smooth="yes"/>
      <point x="437.5866666666667" y="1252.5"/>
      <point x="384.0" y="1160.54"/>
      <point x="384.0" y="951.5" type="curve" smooth="yes"/>
      <point x="384.0" y="504.0" type="line" smooth="yes"/>
      <point x="384.0" y="308.36"/>
      <point x="429.6866666666667" y="201.5"/>
      <point x="593.1666666666666" y="201.5" type="curve" smooth="yes"/>
      <point x="725.1566666666666" y="201.5"/>
      <point x="774.3333333333334" y="295.81"/>
    </contour>
  </outline>
</glyph>
<glyph name="bulletoperator" format="2">
  <advance width="1024"/>
  <unicode hex="2219"/>
  <outline>
    <contour>
      <point x="314.0" y="674.0" type="curve" smooth="yes"/>
      <point x="314.0" y="780.53"/>
      <point x="396.09" y="871.5"/>
      <point x="512.0" y="871.5" type="curve" smooth="yes"/>
      <point x="627.91" y="871.5"/>
      <point x="710.0" y="780.53"/>
      <point x="710.0" y="674.0" type="curve" smooth="yes"/>
      <point x="710.0" y="568.81"/>
      <point x="627.91" y="477.5"/>
      <point x="512.0" y="477.5" type="curve" smooth="yes"/>
      <point x="396.09" y="477.5"/>
      <point x="314.0" y="568.81"/>
    </contour>
  </outline>
</glyph>
<glyph name="be.locl" format="2">
  <advance width="1076"/>
  <outline>
    <contour>
      <point x="368.4666666666667" y="611.1666666666666" type="curve" smooth="yes"/>
      <point x="368.4666666666667" y="450.1666666666667" type="line" smooth="yes"/>
      <point x="368.4666666666667" y="262.78999999999996"/>
      <point x="425.912" y="182.73333333333335"/>
      <point x="539.6333333333333" y="182.73333333333335" type="curve" smooth="yes"/>
      <point x="649.3346666666666" y="182.73333333333335"/>
      <point x="708.3666666666667" y="262.78999999999996"/>
      <point x="708.3666666666667" y="450.1666666666667" type="curve" smooth="yes"/>
      <point x="708.3666666666667" y="611.1666666666666" type="line" smooth="yes"/>
      <point x="708.3666666666667" y="777.5053333333333"/>
      <point x="658.9826666666668" y="857.1"/>
      <point x="539.6333333333333" y="857.1" type="curve" smooth="yes"/>
      <point x="416.666" y="857.1"/>
      <point x="368.4666666666667" y="767.0533333333333"/>
    </contour>
    <contour>
      <point x="73.0" y="532.6666666666666" type="line" smooth="yes"/>
      <point x="73.0" y="741.8853333333333"/>
      <point x="139.69" y="900.3406666666666"/>
      <point x="331.5333333333333" y="988.2" type="curve"/>
      <point x="331.5333333333333" y="992.2" type="line"/>
      <point x="197.85540118336766" y="1033.460492545315"/>
      <point x="138.6" y="1112.6718494623356"/>
      <point x="138.6" y="1239.8666666666666" type="curve" smooth="yes"/>
      <point x="138.6" y="1386.3254063260445"/>
      <point x="247.86561630693038" y="1490.0"/>
      <point x="482.4" y="1490.0" type="curve" smooth="yes"/>
      <point x="563.4" y="1490.0" type="line" smooth="yes"/>
      <point x="661.4433333333333" y="1490.0"/>
      <point x="695.0872188660846" y="1499.6633580645548"/>
      <point x="706.1666666666666" y="1536.0" type="curve"/>
      <point x="964.7333333333333" y="1536.0" type="line"/>
      <point x="952.0033333333333" y="1346.7473333333332"/>
      <point x="851.4186666666666" y="1278.8"/>
      <point x="624.3333333333334" y="1278.8" type="curve" smooth="yes"/>
      <point x="512.2666666666667" y="1278.8" type="line" smooth="yes"/>
      <point x="411.54333333333335" y="1278.8"/>
      <point x="380.6666666666667" y="1248.2820000000002"/>
      <point x="380.6666666666667" y="1191.6" type="curve" smooth="yes"/>
      <point x="380.6666666666667" y="1112.1826666666666"/>
      <point x="420.6358588456653" y="1090.9513623201633"/>
      <point x="612.8333333333334" y="1056.2333333333333" type="curve" smooth="yes"/>
      <point x="883.6026666666667" y="1005.8493333333333"/>
      <point x="1004.3333333333334" y="811.3866666666667"/>
      <point x="1004.3333333333334" y="532.6666666666666" type="curve" smooth="yes"/>
      <point x="1004.3333333333334" y="500.6666666666667" type="line" smooth="yes"/>
      <point x="1004.3333333333334" y="141.4126666666666"/>
      <point x="822.6153333333334" y="-30.0"/>
      <point x="538.1333333333333" y="-30.0" type="curve" smooth="yes"/>
      <point x="253.6513333333333" y="-30.0"/>
      <point x="73.0" y="141.4126666666666"/>
      <point x="73.0" y="500.6666666666667" type="curve" smooth="yes"/>
    </contour>
  </outline>
</glyph>
<glyph name="brevecomb.case" format="2">
  <advance width="1024"/>
  <outline>
    <contour>
      <point x="771.0" y="2010.0" type="curve"/>
      <point x="913.0" y="1916.0" type="line"/>
      <point x="870.79" y="1798.75"/>
      <point x="717.69" y="1640.0"/>
      <point x="512.0" y="1640.0" type="curve" smooth="yes"/>
      <point x="325.74" y="1640.0"/>
      <point x="164.44" y="1777.1399999999999"/>
      <point x="109.5" y="1916.5" type="curve"/>
      <point x="252.5" y="2010.0" type="line"/>
      <point x="304.09000000000003" y="1932.28"/>
      <point x="396.09" y="1855.0"/>
      <point x="512.0" y="1855.0" type="curve" smooth="yes"/>
      <point x="634.61" y="1855.0"/>
      <point x="718.74" y="1926.92"/>
    </contour>
  </outline>
</glyph>
<glyph name="five.prop" format="2">
  <advance width="1043"/>
  <outline>
    <contour>
      <point x="78.66666666666666" y="391.0" type="curve" smooth="yes"/>
      <point x="78.66666666666666" y="412.0" type="line"/>
      <point x="378.1333333333333" y="412.0" type="line"/>
      <point x="378.1333333333333" y="392.5" type="line" smooth="yes"/>
      <point x="378.1333333333333" y="267.7013333333333"/>
      <point x="430.30199999999996" y="195.16666666666669"/>
      <point x="523.7" y="195.16666666666669" type="curve" smooth="yes"/>
      <point x="623.8873333333333" y="195.16666666666669"/>
      <point x="665.6333333333333" y="291.11133333333333"/>
      <point x="665.6333333333333" y="467.5" type="curve" smooth="yes"/>
      <point x="665.6333333333333" y="641.7893333333334"/>
      <point x="619.5046666666667" y="731.2"/>
      <point x="524.7666666666667" y="731.2" type="curve" smooth="yes"/>
      <point x="442.84799999999996" y="731.2"/>
      <point x="389.49199999999996" y="683.6273333333334"/>
      <point x="353.1333333333333" y="624.5333333333333" type="curve"/>
      <point x="126.76666666666667" y="730.0" type="line"/>
      <point x="199.13333333333333" y="1456.0" type="line"/>
      <point x="900.8333333333334" y="1456.0" type="line"/>
      <point x="900.8333333333334" y="1218.9" type="line"/>
      <point x="438.73333333333335" y="1219.9" type="line"/>
      <point x="407.3" y="909.3" type="line"/>
      <point x="450.89466666666664" y="943.9613333333333"/>
      <point x="501.4233333333334" y="962.3666666666667"/>
      <point x="579.3666666666667" y="962.3666666666667" type="curve" smooth="yes"/>
      <point x="810.874" y="962.3666666666667"/>
      <point x="967.6" y="786.0906666666666"/>
      <point x="967.6" y="482.0" type="curve" smooth="yes"/>
      <point x="967.6" y="169.77999999999997"/>
      <point x="813.7293333333333" y="-29.5"/>
      <point x="524.2" y="-29.5" type="curve" smooth="yes"/>
      <point x="234.75999999999993" y="-29.5"/>
      <point x="78.66666666666666" y="146.45"/>
    </contour>
  </outline>
</glyph>
<glyph name="jdotless" format="2">
  <advance width="568"/>
  <outline>
    <contour>
      <point x="-82.0" y="-410.5" type="curve"/>
      <point x="-83.0" y="-192.5" type="line"/>
      <point x="-60.89" y="-200.54"/>
      <point x="-3.8700000000000045" y="-212.5"/>
      <point x="37.0" y="-212.5" type="curve" smooth="yes"/>
      <point x="107.35000000000001" y="-212.5"/>
      <point x="142.0" y="-170.38"/>
      <point x="142.0" y="-60.5" type="curve" smooth="yes"/>
      <point x="142.0" y="1055.0" type="line"/>
      <point x="439.5" y="1055.0" type="line"/>
      <point x="439.5" y="-66.0" type="line" smooth="yes"/>
      <point x="439.5" y="-313.9"/>
      <point x="310.6" y="-436.0"/>
      <point x="89.5" y="-436.0" type="curve" smooth="yes"/>
      <point x="39.919999999999995" y="-436.0"/>
      <point x="-51.849999999999994" y="-423.23"/>
    </contour>
  </outline>
</glyph>
<glyph name="ze.bgr" format="2">
  <advance width="926"/>
  <outline>
    <contour>
      <point x="9.666666666666668" y="2.0" type="curve" smooth="yes"/>
      <point x="9.666666666666668" y="12.0" type="line"/>
      <point x="290.1333333333333" y="12.0" type="line"/>
      <point x="290.1333333333333" y="2.0" type="line" smooth="yes"/>
      <point x="290.1333333333333" y="-137.03031746028853"/>
      <point x="350.68466666666666" y="-209.9"/>
      <point x="449.8" y="-209.9" type="curve" smooth="yes"/>
      <point x="550.2553333333333" y="-209.9"/>
      <point x="605.4666666666667" y="-141.33333333334227"/>
      <point x="605.4666666666667" y="15.0" type="curve" smooth="yes"/>
      <point x="605.4666666666667" y="171.27394139192668"/>
      <point x="555.3265490195929" y="252.26666666666665"/>
      <point x="419.8" y="252.26666666666665" type="curve" smooth="yes"/>
      <point x="340.26666666666665" y="252.26666666666665" type="line"/>
      <point x="340.26666666666665" y="469.6666666666667" type="line"/>
      <point x="413.3" y="469.6666666666667" type="line" smooth="yes"/>
      <point x="509.3072177419379" y="469.6666666666667"/>
      <point x="555.4666666666667" y="550.5635411255263"/>
      <point x="555.4666666666667" y="680.0" type="curve" smooth="yes"/>
      <point x="555.4666666666667" y="813.1736666666667"/>
      <point x="514.5853333333333" y="863.7"/>
      <point x="448.3" y="863.7" type="curve" smooth="yes"/>
      <point x="369.77599999999995" y="863.7"/>
      <point x="324.8" y="795.1790000000001"/>
      <point x="324.8" y="685.5" type="curve" smooth="yes"/>
      <point x="324.8" y="675.5" type="line"/>
      <point x="44.333333333333336" y="675.5" type="line"/>
      <point x="44.333333333333336" y="685.5" type="line" smooth="yes"/>
      <point x="44.333333333333336" y="924.6006666666666"/>
      <point x="212.00441333631298" y="1084.3"/>
      <point x="458.8" y="1084.3" type="curve" smooth="yes"/>
      <point x="687.2503783664571" y="1084.3"/>
      <point x="848.4333333333334" y="951.0006666666666"/>
      <point x="848.4333333333334" y="698.5" type="curve" smooth="yes"/>
      <point x="848.4333333333334" y="565.17"/>
      <point x="786.6886666666667" y="434.16133333333335"/>
      <point x="621.4666666666667" y="366.0" type="curve"/>
      <point x="621.4666666666667" y="362.0" type="line"/>
      <point x="788.6986666666667" y="325.90933333333334"/>
      <point x="900.4333333333334" y="212.72"/>
      <point x="900.4333333333334" y="1.0" type="curve" smooth="yes"/>
      <point x="900.4333333333334" y="-277.72"/>
      <point x="716.6565526315949" y="-430.0"/>
      <point x="458.8" y="-430.0" type="curve" smooth="yes"/>
      <point x="173.27327433625965" y="-430.0"/>
      <point x="9.666666666666668" y="-265.33000000000004"/>
    </contour>
  </outline>
</glyph>
